<?xml version="1.0" standalone="no"?>
<!DOCTYPE svg PUBLIC "-//W3C//DTD SVG 20010904//EN"
 "http://www.w3.org/TR/2001/REC-SVG-20010904/DTD/svg10.dtd">
<svg version="1.0" xmlns="http://www.w3.org/2000/svg"
 width="500.000000pt" height="500.000000pt" viewBox="0 0 500.000000 500.000000"
 preserveAspectRatio="xMidYMid meet">
<metadata>
Created by potrace 1.14, written by Peter Selinger 2001-2017
</metadata>
<g transform="translate(0.000000,500.000000) scale(0.100000,-0.100000)"
fill="#000000" stroke="none">
<path d="M3477 3578 c-56 -140 -890 -2175 -894 -2180 -2 -5 56 -8 129 -8 l133
1 442 1082 c244 595 445 1090 449 1100 6 16 -4 17 -124 17 -95 0 -131 -3 -135
-12z"/>
<path d="M1350 2471 l0 -971 145 0 145 0 0 360 0 360 145 0 c165 0 224 10 315
53 123 58 212 175 257 338 26 92 25 376 -1 469 -51 183 -144 285 -304 333 -59
18 -104 21 -384 24 l-318 5 0 -971z m566 684 c64 -19 116 -63 144 -122 29 -61
39 -231 20 -324 -34 -161 -157 -237 -365 -227 l-70 3 -3 343 -2 342 113 0 c71
0 132 -6 163 -15z"/>
<path d="M4060 3194 l0 -170 300 -306 300 -306 -300 -305 -300 -305 0 -168 0
-168 29 28 29 28 4 -24 c3 -22 58 32 396 385 l392 409 0 123 0 123 -392 407
c-312 323 -394 403 -396 386 -4 -27 -8 -27 -37 7 l-24 27 -1 -171z"/>
<path d="M465 2944 l-390 -404 -3 -123 -2 -122 397 -414 c352 -366 398 -411
401 -388 l3 27 24 -28 24 -27 1 172 0 172 -295 299 c-162 165 -295 304 -295
308 0 5 133 142 295 304 l295 295 0 169 0 169 -25 -23 -25 -23 0 21 c0 12 -3
22 -7 21 -5 0 -183 -182 -398 -405z"/>
</g>
</svg>
